<?xml version="1.0" encoding="UTF-8"?>
<svg width="752pt" height="752pt" version="1.1" viewBox="0 0 752 752" xmlns="http://www.w3.org/2000/svg">
 <g>
  <path d="m235.41 368.6c-9.8125 0-19.223-3.8984-26.16-10.836-6.9414-6.9375-10.836-16.352-10.836-26.164s3.8945-19.223 10.836-26.16c6.9375-6.9375 16.348-10.836 26.16-10.836s19.223 3.8984 26.164 10.836c6.9375 6.9375 10.836 16.348 10.836 26.16s-3.8984 19.227-10.836 26.164c-6.9414 6.9375-16.352 10.836-26.164 10.836zm0-59.199c-5.8867 0-11.531 2.3398-15.695 6.5039-4.1641 4.1641-6.5039 9.8086-6.5039 15.695 0 5.8906 2.3398 11.535 6.5039 15.699 4.1641 4.1641 9.8086 6.5 15.695 6.5s11.535-2.3359 15.699-6.5c4.1602-4.1641 6.5-9.8086 6.5-15.699 0-5.8867-2.3398-11.531-6.5-15.695-4.1641-4.1641-9.8125-6.5039-15.699-6.5039z"/>
  <path d="m516.6 302c-6.1289 0.011719-12.156-1.5117-17.539-4.4375-2.7031-1.4531-5.1953-3.2695-7.3984-5.4023-5.9961-5.3477-9.9922-12.578-11.324-20.5-0.49609-2.1836-0.74609-4.418-0.73828-6.6562 0-9.8164 3.8984-19.227 10.836-26.164s16.348-10.836 26.164-10.836c9.8125 0 19.223 3.8984 26.16 10.836s10.836 16.348 10.836 26.164c0 9.8125-3.8984 19.223-10.836 26.16s-16.348 10.836-26.16 10.836zm0-59.199v0.003906c-5.8906 0-11.535 2.3359-15.699 6.5-4.1641 4.1641-6.5 9.8086-6.5 15.699-0.12891 1.2539-0.12891 2.5156 0 3.7734 0.94141 4.8984 3.5586 9.3203 7.3984 12.504 1.3203 1.2695 2.8125 2.3398 4.4375 3.1836 3.1641 1.7773 6.7305 2.7227 10.363 2.7344 7.9297 0 15.258-4.2305 19.223-11.098 3.9648-6.8672 3.9648-15.332 0-22.199-3.9648-6.8672-11.293-11.098-19.223-11.098z"/>
  <path d="m516.6 524c-9.8164 0-19.227-3.8984-26.164-10.836-6.9375-6.9414-10.836-16.352-10.836-26.164-0.14844-1.7461-0.14844-3.5039 0-5.2539 1.1055-7.9062 4.7695-15.238 10.434-20.867 2.4844-2.4688 5.2969-4.5859 8.3594-6.2891 9.9922-5.5 21.961-6.082 32.441-1.5859 10.477 4.5 18.297 13.582 21.191 24.613 2.8906 11.031 0.53516 22.781-6.3867 31.844s-17.637 14.426-29.039 14.539zm0-59.199c-3.7266 0.003906-7.3906 0.94531-10.656 2.7383-1.8828 1.0586-3.625 2.3516-5.1797 3.8477-3.3516 3.4219-5.5078 7.8359-6.1445 12.582-0.13672 1.0039-0.21094 2.0156-0.21875 3.0312 0 5.8867 2.3359 11.535 6.5 15.699 4.1641 4.1602 9.8086 6.5 15.699 6.5 5.8867 0 11.531-2.3398 15.695-6.5 4.1641-4.1641 6.5-9.8125 6.5-15.699 0-5.8867-2.3359-11.531-6.5-15.695-4.1641-4.1641-9.8086-6.5039-15.695-6.5039z"/>
  <path d="m242.81 472.2c-8.9375 0.003906-17.574-3.2266-24.316-9.0977-6.7422-5.8672-11.129-13.977-12.355-22.832-1.2227-8.8516 0.79688-17.848 5.6914-25.328 4.8906-7.4766 12.328-12.934 20.93-15.355 8.6016-2.4219 17.793-1.6484 25.867 2.1758 8.0781 3.8281 14.496 10.445 18.074 18.637 2.0742 4.6562 3.1328 9.7031 3.1055 14.801 0 9.8125-3.8984 19.223-10.836 26.16-6.9375 6.9414-16.348 10.84-26.16 10.84zm0-59.199c-7.9336 0-15.262 4.2305-19.227 11.098-3.9648 6.8711-3.9648 15.332 0 22.199 3.9648 6.8711 11.293 11.102 19.227 11.102 5.8867 0 11.531-2.3398 15.695-6.5039 4.1641-4.1602 6.5039-9.8086 6.5039-15.695 0.027344-3.0352-0.60156-6.0391-1.8516-8.8047-1.7188-3.9727-4.5586-7.3594-8.1719-9.7383-3.6172-2.3789-7.8477-3.6523-12.176-3.6562z"/>
  <path d="m376 420.4c-7.1953-0.003907-14.234-2.1055-20.254-6.0469-6.0195-3.9414-10.758-9.5547-13.637-16.152-2.0742-4.6562-3.1328-9.6992-3.1055-14.797 0.050782-11.785 5.707-22.84 15.238-29.77 9.5273-6.9297 21.789-8.9023 33.016-5.3203 11.223 3.5859 20.07 12.301 23.816 23.473 2.6172 7.5742 2.6172 15.809 0 23.383-1.7539 5.3984-4.7422 10.312-8.7305 14.355-7 6.9609-16.469 10.871-26.344 10.875zm0-59.199v0.003906c-5.8867 0-11.531 2.3359-15.695 6.5-4.1641 4.1641-6.5039 9.8086-6.5039 15.699-0.03125 3.0352 0.60156 6.0391 1.8516 8.8047 2.9141 6.7617 8.9961 11.641 16.23 13.02 7.2344 1.3789 14.68-0.92187 19.879-6.1367 2.3359-2.3477 4.1289-5.1758 5.2539-8.2891 0.82031-2.3789 1.2227-4.8828 1.1836-7.3984 0.011719-2.3398-0.36328-4.6641-1.1094-6.8828-1.4492-4.4492-4.2734-8.3281-8.0586-11.078-3.7891-2.7539-8.3477-4.2344-13.031-4.2383z"/>
  <path d="m376.6 272.61 12.574-7.8047 119.42 192.38-12.574 7.8047z"/>
  <path d="m395.05 513.79 89.355-37.578 5.7383 13.641-89.355 37.578z"/>
  <path d="m368.6 279.8c-11.254 0.074218-21.906-5.0625-28.859-13.91-7.2188-8.9023-9.9102-20.645-7.2812-31.801 2.6289-11.156 10.281-20.461 20.719-25.199 10.434-4.7383 22.477-4.375 32.605 0.98828 10.129 5.3633 17.203 15.117 19.148 26.414 0.46094 2.1367 0.6875 4.3203 0.66797 6.5117 0 9.8125-3.8984 19.223-10.84 26.16-6.9375 6.9375-16.348 10.836-26.16 10.836zm0-59.199v0.003906c-7.9297 0-15.258 4.2305-19.227 11.098-3.9648 6.8672-3.9648 15.332 0 22.199 3.9688 6.8672 11.297 11.102 19.227 11.102 3.7266-0.007812 7.3906-0.94922 10.656-2.7383 3.6914-2.0664 6.7422-5.1133 8.8047-8.8086 1.8203-3.2539 2.7656-6.9258 2.7383-10.652 0.12891-1.2578 0.12891-2.5195 0-3.7773-0.89844-5.2109-3.6289-9.9297-7.6992-13.309-4.0703-3.3789-9.2109-5.1914-14.5-5.1133z"/>
  <path d="m254.69 306.74 87.043-51.824 7.5703 12.715-87.043 51.824z"/>
  <path d="m376.26 486.73 120.04-199.46 12.68 7.6328-120.04 199.46z"/>
  <path d="m395.16 244.43 5.082-13.898 89.855 32.863-5.082 13.898z"/>
  <path d="m368.6 553.59c-9.8125 0-19.223-3.8984-26.16-10.836-6.9414-6.9375-10.84-16.348-10.84-26.16 0-13.219 7.0547-25.434 18.5-32.043 11.449-6.6094 25.551-6.6094 37 0 11.445 6.6094 18.5 18.824 18.5 32.043 0.14453 1.7461 0.14453 3.5039 0 5.25-1.2734 8.8789-5.7266 16.992-12.531 22.828-6.8086 5.8398-15.5 9.0078-24.469 8.918zm0-59.199v0.003907c-5.8867 0-11.535 2.3359-15.695 6.5-4.1641 4.1641-6.5039 9.8086-6.5039 15.699-0.54297 7.9297 3.1875 15.547 9.7852 19.98 6.5977 4.4375 15.062 5.0156 22.199 1.5195 7.1406-3.4961 11.871-10.535 12.414-18.469 0.066407-1.0078 0.066407-2.0234 0-3.0312-0.003906-4.0117-1.0938-7.9414-3.1523-11.383-2.0586-3.4375-5.0078-6.2578-8.5391-8.1562-3.2188-1.7656-6.8359-2.6836-10.508-2.6602z"/>
  <path d="m267.37 416.44 79.055-28.137 4.9609 13.941-79.055 28.137z"/>
  <path d="m393.43 409.92 7.8438-12.578 98.938 61.691-7.8438 12.578z"/>
  <path d="m262.86 459.02 7.5664-12.719 78.164 46.484-7.5664 12.719z"/>
  <path d="m391.59 355.6 100.75-74.711 8.8164 11.887-100.75 74.711z"/>
  <path d="m260.18 350.74 4.5859-14.059 86.324 28.168-4.5859 14.059z"/>
  <path d="m245.36 361.01 11.84-8.8789 101.29 135.11-11.84 8.8789z"/>
  <path d="m251.52 405.4 96.211-141.2 12.23 8.332-96.211 141.2z"/>
 </g>
</svg>
